<svg width="24" height="24" xmlns="http://www.w3.org/2000/svg">

 <g>
  <title>Layer 1</title>
  <path id="svg_1" d="m22.485,10.975l-10.485,6.292l-10.485,-6.292a1,1 0 1 0 -1.029,1.715l11,6.6a1,1 0 0 0 1.03,0l11,-6.6a1,1 0 1 0 -1.029,-1.715l-0.002,0z"/>
  <path id="svg_2" d="m22.485,15.543l-10.485,6.291l-10.485,-6.291a1,1 0 1 0 -1.029,1.715l11,6.6a1,1 0 0 0 1.03,0l11,-6.6a1,1 0 1 0 -1.029,-1.715l-0.002,0z"/>
  <path id="svg_3" d="m12,14.773a2.976,2.976 0 0 1 -1.531,-0.425l-9.984,-5.991a1,1 0 0 1 0,-1.714l9.984,-5.991a2.973,2.973 0 0 1 3.062,0l9.984,5.991a1,1 0 0 1 0,1.714l-9.984,5.991a2.976,2.976 0 0 1 -1.531,0.425zm-9.056,-7.273l8.556,5.133a0.974,0.974 0 0 0 1,0l8.556,-5.133l-8.556,-5.133a0.974,0.974 0 0 0 -1,0l0,0l-8.556,5.133z"/>
 </g>
</svg>