<svg version="1.1" id="Layer_1" xmlns="http://www.w3.org/2000/svg" xmlns:xlink="http://www.w3.org/1999/xlink" x="0px" y="0px"
	 width="100%" viewBox="0 0 512 512" enable-background="new 0 0 512 512" xml:space="preserve">
<path fill="#FFD05B" opacity="1.000000" stroke="none" 
	d="
M235.000000,1.000000 
	C249.354233,1.000000 263.708466,1.000000 278.772919,1.343259 
	C292.134949,3.695143 304.907776,5.141691 317.412323,7.834101 
	C340.578308,12.822066 362.245636,21.868242 382.954224,33.404636 
	C410.908722,48.977608 434.725342,69.525764 455.143921,93.893921 
	C472.159882,114.201294 485.576050,136.872025 495.277283,161.635086 
	C503.047241,181.468491 508.714081,201.828949 511.062042,223.058838 
	C511.504761,227.061722 512.343811,231.020737 513.000000,235.000000 
	C513.000000,249.354233 513.000000,263.708466 512.656738,278.772949 
	C510.304840,292.135010 508.858185,304.907806 506.165863,317.412445 
	C501.178070,340.578461 492.131683,362.245697 480.595276,382.954285 
	C465.022339,410.908813 444.474060,434.725281 420.106018,455.143982 
	C399.798706,472.160034 377.127960,485.576111 352.364929,495.277374 
	C332.531525,503.047333 312.171051,508.714172 290.941162,511.062103 
	C286.938293,511.504791 282.979248,512.343811 279.000000,513.000000 
	C264.645782,513.000000 250.291550,513.000000 235.227081,512.656738 
	C221.865067,510.304840 209.092255,508.858337 196.587738,506.165894 
	C173.421768,501.177917 151.754364,492.131897 131.045776,480.595459 
	C103.091309,465.022339 79.274719,444.474182 58.856052,420.106049 
	C41.840046,399.798706 28.423944,377.127960 18.722715,352.364929 
	C10.952743,332.531555 5.285898,312.171051 2.937938,290.941162 
	C2.495236,286.938293 1.656172,282.979248 1.000001,279.000000 
	C1.000000,264.645782 1.000000,250.291550 1.343263,235.227081 
	C3.695165,221.865021 5.141760,209.092194 7.834142,196.587585 
	C12.822046,173.421585 21.868248,151.754272 33.404667,131.045685 
	C48.977665,103.091202 69.525848,79.274651 93.893982,58.856033 
	C114.201324,41.840046 136.872040,28.423922 161.635101,18.722702 
	C181.468475,10.952738 201.828949,5.285905 223.058838,2.937936 
	C227.061722,2.495229 231.020737,1.656169 235.000000,1.000000 
M143.408966,181.000488 
	C133.951019,197.866592 131.149521,215.768097 135.947113,234.511642 
	C137.227997,239.515961 135.944107,241.307785 131.499649,243.287796 
	C113.206352,251.437485 100.327019,265.137939 94.378891,284.208588 
	C80.899033,327.427307 112.766502,371.502472 158.255814,371.903046 
	C223.736908,372.479675 289.226685,372.089844 354.712738,372.037170 
	C358.518890,372.034119 362.355865,371.556702 366.125397,370.962921 
	C395.988098,366.258850 421.261993,338.876953 422.937195,309.515656 
	C424.810455,276.682007 403.736664,247.510803 371.804321,239.021957 
	C368.344055,238.102081 366.998840,236.736252 366.964661,233.027420 
	C366.860931,221.777847 363.413635,211.394058 357.483582,201.890213 
	C341.178619,175.758926 310.436096,163.322723 280.446442,170.630386 
	C277.082581,171.450104 274.326202,172.254257 271.211517,168.821060 
	C234.795395,128.681061 172.384171,134.435577 143.408966,181.000488 
z"/>
<path fill="#FFFFFF" opacity="1.000000" stroke="none" 
	d="
M234.531342,1.000000 
	C231.020737,1.656169 227.061722,2.495229 223.058838,2.937936 
	C201.828949,5.285905 181.468475,10.952738 161.635101,18.722702 
	C136.872040,28.423922 114.201324,41.840046 93.893982,58.856033 
	C69.525848,79.274651 48.977665,103.091202 33.404667,131.045685 
	C21.868248,151.754272 12.822046,173.421585 7.834142,196.587585 
	C5.141760,209.092194 3.695165,221.865021 1.343263,234.758423 
	C1.000000,157.072952 1.000000,79.145912 1.000000,1.000000 
	C78.687424,1.000000 156.375061,1.000000 234.531342,1.000000 
z"/>
<path fill="#FFFFFF" opacity="1.000000" stroke="none" 
	d="
M513.000000,234.531342 
	C512.343811,231.020737 511.504761,227.061722 511.062042,223.058838 
	C508.714081,201.828949 503.047241,181.468491 495.277283,161.635086 
	C485.576050,136.872025 472.159882,114.201294 455.143921,93.893921 
	C434.725342,69.525764 410.908722,48.977608 382.954224,33.404636 
	C362.245636,21.868242 340.578308,12.822066 317.412323,7.834101 
	C304.907776,5.141691 292.134949,3.695143 279.241577,1.343259 
	C356.927032,1.000000 434.854095,1.000000 513.000000,1.000000 
	C513.000000,78.687424 513.000000,156.375061 513.000000,234.531342 
z"/>
<path fill="#FFFFFF" opacity="1.000000" stroke="none" 
	d="
M1.000001,279.468658 
	C1.656172,282.979248 2.495236,286.938293 2.937938,290.941162 
	C5.285898,312.171051 10.952743,332.531555 18.722715,352.364929 
	C28.423944,377.127960 41.840046,399.798706 58.856052,420.106049 
	C79.274719,444.474182 103.091309,465.022339 131.045776,480.595459 
	C151.754364,492.131897 173.421768,501.177917 196.587738,506.165894 
	C209.092255,508.858337 221.865067,510.304840 234.758423,512.656738 
	C157.072968,513.000000 79.145927,513.000000 1.000000,513.000000 
	C1.000000,435.312561 1.000000,357.624939 1.000001,279.468658 
z"/>
<path fill="#FFFFFF" opacity="1.000000" stroke="none" 
	d="
M279.468658,513.000000 
	C282.979248,512.343811 286.938293,511.504791 290.941162,511.062103 
	C312.171051,508.714172 332.531525,503.047333 352.364929,495.277374 
	C377.127960,485.576111 399.798706,472.160034 420.106018,455.143982 
	C444.474060,434.725281 465.022339,410.908813 480.595276,382.954285 
	C492.131683,362.245697 501.178070,340.578461 506.165863,317.412445 
	C508.858185,304.907806 510.304840,292.135010 512.656738,279.241577 
	C513.000000,356.927032 513.000000,434.854095 513.000000,513.000000 
	C435.312561,513.000000 357.624939,513.000000 279.468658,513.000000 
z"/>
<path fill="#FFFEFE" opacity="1.000000" stroke="none" 
	d="
M143.607819,180.690735 
	C172.384171,134.435577 234.795395,128.681061 271.211517,168.821060 
	C274.326202,172.254257 277.082581,171.450104 280.446442,170.630386 
	C310.436096,163.322723 341.178619,175.758926 357.483582,201.890213 
	C363.413635,211.394058 366.860931,221.777847 366.964661,233.027420 
	C366.998840,236.736252 368.344055,238.102081 371.804321,239.021957 
	C403.736664,247.510803 424.810455,276.682007 422.937195,309.515656 
	C421.261993,338.876953 395.988098,366.258850 366.125397,370.962921 
	C362.355865,371.556702 358.518890,372.034119 354.712738,372.037170 
	C289.226685,372.089844 223.736908,372.479675 158.255814,371.903046 
	C112.766502,371.502472 80.899033,327.427307 94.378891,284.208588 
	C100.327019,265.137939 113.206352,251.437485 131.499649,243.287796 
	C135.944107,241.307785 137.227997,239.515961 135.947113,234.511642 
	C131.149521,215.768097 133.951019,197.866592 143.607819,180.690735 
M343.545868,339.474609 
	C343.545868,301.219299 343.545868,262.963959 343.545868,224.695404 
	C333.833191,224.695404 324.939758,224.695404 315.895386,224.695404 
	C315.895386,267.315948 315.895386,309.556793 315.895386,351.845764 
	C325.217224,351.845764 334.251160,351.845764 343.545563,351.845764 
	C343.545563,347.775543 343.545563,344.118286 343.545868,339.474609 
M285.444214,256.284088 
	C279.509644,256.284088 273.575104,256.284088 267.433868,256.284088 
	C267.433868,288.526093 267.433868,320.043549 267.433868,351.757843 
	C276.748169,351.757843 285.749176,351.757843 294.699158,351.757843 
	C294.699158,319.796936 294.699158,288.286926 294.699158,256.284485 
	C291.683075,256.284485 289.053009,256.284485 285.444214,256.284088 
M258.508026,214.994370 
	C229.994858,241.456177 201.481689,267.917969 172.813705,294.523468 
	C175.313309,297.207092 177.532974,299.590149 179.897705,302.128937 
	C210.199493,274.031342 240.111542,246.295151 270.023590,218.558960 
	C270.502411,218.842834 270.981232,219.126724 271.460052,219.410614 
	C270.326813,224.627441 269.193542,229.844269 268.009857,235.293304 
	C271.362305,236.121384 274.378021,236.866272 277.851257,237.724182 
	C281.548279,223.141602 285.184601,208.798355 288.971680,193.860504 
	C273.726013,196.519730 259.222290,199.049530 244.290726,201.653976 
	C244.942841,205.256607 245.518936,208.439331 246.124191,211.783051 
	C252.276993,210.777878 257.992523,209.844131 265.133087,208.677582 
	C262.344482,211.337967 260.684814,212.921326 258.508026,214.994370 
M246.867126,336.495819 
	C246.867126,320.574921 246.867126,304.654022 246.867126,288.564423 
	C237.245468,288.564423 228.217819,288.564423 219.169846,288.564423 
	C219.169846,309.848328 219.169846,330.751373 219.169846,351.765259 
	C228.463486,351.765259 237.486176,351.765259 246.867111,351.765259 
	C246.867111,346.760437 246.867111,342.127106 246.867126,336.495819 
M198.752380,327.659760 
	C198.728012,320.107147 198.728012,320.105133 191.096039,320.104401 
	C185.597717,320.103882 180.097763,320.189789 174.601730,320.078949 
	C171.830246,320.023041 170.729279,321.095367 170.764114,323.893677 
	C170.865723,332.056610 170.866409,340.222351 170.767578,348.385315 
	C170.733139,351.230713 171.953735,352.171478 174.665970,352.129150 
	C181.162384,352.027771 187.666519,351.948730 194.157547,352.163055 
	C197.607147,352.276947 198.924698,351.142731 198.808746,347.616882 
	C198.600769,341.292297 198.751068,334.955963 198.752380,327.659760 
z"/>
<path fill="#F15843" opacity="1.000000" stroke="none" 
	d="
M343.545715,339.967804 
	C343.545563,344.118286 343.545563,347.775543 343.545563,351.845764 
	C334.251160,351.845764 325.217224,351.845764 315.895386,351.845764 
	C315.895386,309.556793 315.895386,267.315948 315.895386,224.695404 
	C324.939758,224.695404 333.833191,224.695404 343.545868,224.695404 
	C343.545868,262.963959 343.545868,301.219299 343.545715,339.967804 
z"/>
<path fill="#F9B64E" opacity="1.000000" stroke="none" 
	d="
M285.933594,256.284302 
	C289.053009,256.284485 291.683075,256.284485 294.699158,256.284485 
	C294.699158,288.286926 294.699158,319.796936 294.699158,351.757843 
	C285.749176,351.757843 276.748169,351.757843 267.433868,351.757843 
	C267.433868,320.043549 267.433868,288.526093 267.433868,256.284088 
	C273.575104,256.284088 279.509644,256.284088 285.933594,256.284302 
z"/>
<path fill="#304052" opacity="1.000000" stroke="none" 
	d="
M258.766602,214.749527 
	C260.684814,212.921326 262.344482,211.337967 265.133087,208.677582 
	C257.992523,209.844131 252.276993,210.777878 246.124191,211.783051 
	C245.518936,208.439331 244.942841,205.256607 244.290726,201.653976 
	C259.222290,199.049530 273.726013,196.519730 288.971680,193.860504 
	C285.184601,208.798355 281.548279,223.141602 277.851257,237.724182 
	C274.378021,236.866272 271.362305,236.121384 268.009857,235.293304 
	C269.193542,229.844269 270.326813,224.627441 271.460052,219.410614 
	C270.981232,219.126724 270.502411,218.842834 270.023590,218.558960 
	C240.111542,246.295151 210.199493,274.031342 179.897705,302.128937 
	C177.532974,299.590149 175.313309,297.207092 172.813705,294.523468 
	C201.481689,267.917969 229.994858,241.456177 258.766602,214.749527 
z"/>
<path fill="#2F9A85" opacity="1.000000" stroke="none" 
	d="
M246.867126,336.994812 
	C246.867111,342.127106 246.867111,346.760437 246.867111,351.765259 
	C237.486176,351.765259 228.463486,351.765259 219.169846,351.765259 
	C219.169846,330.751373 219.169846,309.848328 219.169846,288.564423 
	C228.217819,288.564423 237.245468,288.564423 246.867126,288.564423 
	C246.867126,304.654022 246.867126,320.574921 246.867126,336.994812 
z"/>
<path fill="#AEB5BC" opacity="1.000000" stroke="none" 
	d="
M198.752014,328.142151 
	C198.751068,334.955963 198.600769,341.292297 198.808746,347.616882 
	C198.924698,351.142731 197.607147,352.276947 194.157547,352.163055 
	C187.666519,351.948730 181.162384,352.027771 174.665970,352.129150 
	C171.953735,352.171478 170.733139,351.230713 170.767578,348.385315 
	C170.866409,340.222351 170.865723,332.056610 170.764114,323.893677 
	C170.729279,321.095367 171.830246,320.023041 174.601730,320.078949 
	C180.097763,320.189789 185.597717,320.103882 191.096039,320.104401 
	C198.728012,320.105133 198.728012,320.107147 198.752014,328.142151 
z"/>
</svg>